<?xml version="1.0" encoding="UTF-8"?>
<svg version="1.1" viewBox="0 0 1600 1600" width="1280" height="1280" xmlns="http://www.w3.org/2000/svg">
<path transform="translate(835,327)" d="m0 0h4c0.0269 1.98 0.0463 3.96 0.0625 5.94 0.0116 1.1 0.0232 2.2 0.0352 3.34-0.0977 2.72-0.0977 2.72-1.1 3.72-0.273 1.38-0.491 2.77-0.684 4.16-0.123 0.877-0.246 1.75-0.373 2.66-0.126 0.926-0.251 1.85-0.381 2.8-0.122 0.871-0.244 1.74-0.369 2.64-0.26 1.87-0.515 3.74-0.765 5.61-0.302 2.21-0.621 4.42-0.952 6.62-1.33 9.19-1.86 18.2-2.04 27.5-0.0585 2.69-0.124 5.38-0.191 8.06-0.0239 1.17-0.0479 2.33-0.0725 3.54-0.179 3.52-0.638 6.92-1.17 10.4-0.0808 1.33-0.131 2.67-0.125 4-0.00258 0.598-0.00516 1.2-0.00781 1.81 0.109 2.36 0.109 2.36 0.628 5.37 0.492 3.72 0.662 7.28 0.716 11 0.026 1.41 0.0527 2.82 0.0801 4.22 0.0133 0.734 0.0266 1.47 0.0403 2.22 0.252 13.1 0.897 26.1 2.17 39.2 0.0658 0.683 0.132 1.37 0.199 2.07 0.561 5.75 1.16 11.4 2.3 17.1 0.297 3.87 0.506 7.73 0.719 11.6 0.145 3.38 0.145 3.38 1.28 6.4 0.309 3.61 0.51 7.23 0.719 10.8 0.0785 3.05 0.0785 3.05 1.28 5.15 0.354 3 0.662 5.99 0.938 9 0.174 1.81 0.348 3.62 0.523 5.43 0.0886 0.923 0.177 1.85 0.269 2.8 0.418 4.28 0.868 8.56 1.33 12.8 0.0792 0.755 0.158 1.51 0.24 2.29 0.333 3.04 0.728 5.74 1.7 8.65 0.0697 2.39 0.0845 4.79 0.0625 7.19-0.00902 1.27-0.018 2.54-0.0273 3.86-0.0116 0.976-0.0232 1.95-0.0352 2.96h2c0.0804 0.704 0.161 1.41 0.244 2.13 0.376 3.29 0.754 6.58 1.13 9.87 0.136 1.19 0.273 2.38 0.414 3.61 0.736 6.39 1.5 12.8 2.34 19.1 0.794 6.18 1.28 12.3 1.63 18.6 0.0782 2.66 0.0782 2.66 1.25 4.7 0.206 2.31 0.366 4.62 0.5 6.94 0.282 5.12 0.282 5.12 1.5 10.1 0.296 2.62 0.545 5.22 0.754 7.84 0.0654 0.812 0.131 1.62 0.198 2.46 7.84 100 7.84 100-4.95 143-0.894 3.31-1.76 6.62-2.62 9.94-0.344 1.31-0.344 1.31-0.695 2.65-0.561 2.14-1.12 4.27-1.68 6.41h-2c0.0825 0.639 0.165 1.28 0.25 1.94-0.308 3.78-1.64 6.49-3.28 9.88-0.916 2.06-1.5 3.99-1.97 6.18h-2c-0.102 0.531-0.204 1.06-0.309 1.61-0.894 3.09-2.29 5.78-3.75 8.64l-1.66 3.27c-0.422 0.82-0.843 1.64-1.28 2.48h-2v4h-2c-0.11 0.781-0.11 0.781-0.223 1.58-1.11 3.46-3.14 6.22-5.21 9.17-0.408 0.602-0.816 1.2-1.24 1.82-1.05 1.52-2.18 2.98-3.33 4.43h-2v2h-2v2c-3.42 2.54-5.76 3.36-10 3-0.377-4.34-0.0409-7.31 1.69-11.3 4.59-10.7 7.08-22.3 9.73-33.6 0.578-2.09 0.578-2.09 1.58-3.09 0.332-1.39 0.614-2.79 0.875-4.19 0.821-4.31 1.74-8.59 2.69-12.9 1.15-5.32 1.9-10.5 2.44-15.9 0.33-0.66 0.66-1.32 1-2 0.208-2.65 0.374-5.28 0.5-7.94 0.366-7.66 0.366-7.66 1.5-11.1 2.17-23.1 1.59-47 0.562-70.2-0.0392-0.889-0.0783-1.78-0.119-2.69-0.135-4.19-0.135-4.19-1.44-8.12-0.14-1.5-0.225-3-0.281-4.5-0.0561-1.33-0.0561-1.33-0.113-2.69l-0.211-5.62c-0.0561-1.33-0.0561-1.33-0.113-2.69-0.0303-0.815-0.0606-1.63-0.0918-2.47-0.072-2.1-0.072-2.1-1.19-4.03-0.185-1.45-0.321-2.91-0.43-4.38-0.0716-0.894-0.143-1.79-0.217-2.71-0.0753-0.962-0.151-1.92-0.228-2.92-0.671-8.03-1.66-15.9-3.08-23.8-0.943-5.31-1.51-10.6-1.83-16-0.0829-2.23-0.0829-2.23-1.21-4.19-0.183-1.62-0.322-3.25-0.438-4.88-0.589-7.05-1.76-14-3.1-20.9-1.14-5.93-1.83-11.8-2.21-17.8-0.101-2.44-0.101-2.44-1.25-4.43-0.313-2.82-0.51-5.64-0.719-8.47-0.133-2.52-0.133-2.52-1.28-4.53-0.278-1.63-0.51-3.27-0.719-4.92-0.127-1-0.254-2-0.385-3.03-0.196-1.6-0.196-1.6-0.396-3.24-0.135-1.08-0.269-2.16-0.408-3.28-0.88-7.27-1.53-14.5-1.88-21.8-0.107-2.82-0.107-2.82-1.21-5.73-0.137-1.75-0.224-3.5-0.281-5.25-0.0374-1.02-0.0748-2.04-0.113-3.09-0.0704-2.15-0.141-4.3-0.211-6.45-0.0374-1.02-0.0748-2.04-0.113-3.08-0.0303-0.934-0.0606-1.87-0.0918-2.83-0.0488-2.32-0.0488-2.32-1.19-4.29-0.0963-1.9-0.128-3.8-0.129-5.7-0.00473-1.79-0.00473-1.79-0.00955-3.62 0.00202-1.3 0.00405-2.59 0.00613-3.93-6.73e-4 -1.34-0.00164-2.68-0.0029-4.01-0.00148-2.8 6.72e-4 -5.61 0.00534-8.41 0.0057-3.6 0.00242-7.2-0.00357-10.8-0.00361-2.76-0.00246-5.52 1.28e-4 -8.29 9.93e-4 -1.97-0.00205-3.95-0.00513-5.92 0.00315-1.19 0.0063-2.39 0.00955-3.62 0.00119-1.58 0.00119-1.58 0.00241-3.2 0.127-2.5 0.127-2.5 1.13-4.5 0.208-2.82 0.374-5.62 0.5-8.44 0.366-8.16 0.366-8.16 1.5-11.6 0.343-2.62 0.653-5.24 0.938-7.88 2.36-20.7 2.36-20.7 5.28-28.7 1.36-4.2 2.14-8.52 3.02-12.8 1.11-5.24 2.42-10.4 3.76-15.6h2c-0.124-1.21-0.124-1.21-0.25-2.44 0.287-4.1 1.54-6.78 3.29-10.4 1.06-2.35 1.63-4.57 1.96-7.12h2c0.144-0.743 0.289-1.49 0.438-2.25 0.464-2.27 0.981-4.51 1.56-6.75h2c0.309-0.784 0.619-1.57 0.938-2.38 1.06-2.62 1.06-2.62 2.06-4.62h3v-2z" fill="#000002"/>
<path transform="translate(727,256)" d="m0 0v2c0.99 0.495 0.99 0.495 2 1h-2v2c-2.48 0.99-2.48 0.99-5 2v2c-0.887 0.681-1.77 1.36-2.69 2.06-4.05 3.2-6.07 7.37-8.31 11.9h-2c-0.134 0.584-0.268 1.17-0.406 1.77-0.594 2.23-0.594 2.23-2.09 5.92-1.49 3.84-1.99 7.44-2.29 11.5-0.211 1.79-0.211 1.79-1.21 2.79-0.371 5.18-0.371 5.18 1 10 0.132 1.58 0.23 3.17 0.312 4.75 0.482 5.85 1.95 11.2 3.64 16.8 0.971 3.25 1.81 6.51 2.61 9.8 1.6 6.5 3.65 12.7 6.12 18.9 1.15 3.28 1.63 5.35 1.31 8.75h2c0.652 2.19 1.3 4.37 1.94 6.56 0.36 1.22 0.719 2.44 1.09 3.69 0.939 3.62 1.52 7.04 1.97 10.7h2c5.15 22 8.94 41.5 5 64-1.87-0.277-1.87-0.277-4-1-1.16-1.57-1.16-1.57-2.06-3.56-0.501-1.09-0.501-1.09-1.01-2.2-0.829-2-1.58-4.01-2.3-6.05-1.63-4.57-4.01-8.67-6.42-12.9-1.21-2.32-1.21-2.32-1.21-4.32h-2c-0.793-1.42-1.58-2.83-2.38-4.25-0.441-0.789-0.882-1.58-1.34-2.39-1.15-2.1-2.24-4.21-3.29-6.36h-2c-1.62-1.38-1.62-1.38-3-3v-2h-2v-2c-2.33-1.21-4.5-2.17-7-3v-2h-4v-2c-0.545-0.182-1.09-0.364-1.65-0.551-7.35-2.45-7.35-2.45-9.3-3.21-5.95-2.21-11.2-2.7-17.5-2.61-0.886-0.0116-1.77-0.0232-2.68-0.0352-5.4 0.0238-9.86 0.785-14.9 2.7-2.26 0.846-4.52 1.33-6.9 1.71v2h-4v2h-2v2c-1.68 1.62-1.68 1.62-3.88 3.44-2.59 2.15-4.24 3.73-6.12 6.56h-2c-0.289 0.887-0.577 1.77-0.875 2.69-0.956 2.82-1.99 5.56-3.12 8.31h-2c-0.0909 1.01-0.0909 1.01-0.184 2.05-0.0838 0.892-0.168 1.78-0.254 2.7-0.0812 0.882-0.162 1.76-0.246 2.67-0.316 2.58-0.316 2.58-0.832 4.55-2.24 9.39 0.111 18.7 2.64 27.7 0.875 3.34 0.875 3.34 0.875 6.34h2c0.648 1.27 1.29 2.54 1.94 3.81 0.36 0.708 0.719 1.42 1.09 2.14 0.973 2.04 0.973 2.04 1.97 5.04h2v3h2c3 3.46 3 3.46 3 6h2v2h2v2c0.773 0.34 0.773 0.34 1.56 0.688 3.98 2.14 7.82 4.69 11 7.9 1.65 1.64 3.31 2.47 5.42 3.41v2h3v2c2.65 1.08 5.28 2.09 8 3v2h3v2c0.557 0.124 1.11 0.247 1.69 0.375 2.53 0.685 4.89 1.62 7.31 2.62v2h4v2c0.552 0.122 1.1 0.245 1.67 0.371 2.62 0.709 5.06 1.67 7.58 2.69 0.892 0.362 1.78 0.724 2.7 1.1 1.01 0.416 1.01 0.416 2.05 0.84v2h3v2c0.557 0.124 1.11 0.247 1.69 0.375 2.53 0.685 4.89 1.62 7.31 2.62v2h2v2c0.516 0.0825 1.03 0.165 1.56 0.25 3.48 1.07 6.31 2.89 9.44 4.75v2h3v2h2v2c0.598 0.289 1.2 0.578 1.81 0.875 2.19 1.12 2.19 1.12 5.19 3.12v2h2v2h2c1.59 1.71 3.1 3.5 4.56 5.31 0.806 0.986 1.61 1.97 2.44 2.99 2 2.7 2 2.7 3 5.7h2c1.29 1.64 1.29 1.64 2.62 3.81 0.446 0.708 0.892 1.42 1.35 2.14 1.02 2.04 1.02 2.04 1.02 5.04h2c0.33 2.31 0.66 4.62 1 7-6.81-0.413-11.2-5.94-15.4-10.8-2.56-2.97-2.56-2.97-2.56-5.25h-2v-2c-0.619-0.309-1.24-0.619-1.88-0.938l-4.12-2.06v-2h-3v-2c-0.516-0.103-1.03-0.206-1.56-0.312-2.44-0.688-2.44-0.688-5.75-2.19-3.64-1.48-6.79-2.1-10.7-2.5v-2h-14v2c-1.01 0.0825-2.02 0.165-3.06 0.25-4.32 0.588-7.25 2.51-10.9 4.75h-2v2h-2v2c-0.784 0.454-1.57 0.908-2.38 1.38-2.75 1.7-3.5 2.67-4.62 5.62h-2c-0.289 0.887-0.577 1.77-0.875 2.69-1.12 3.31-1.12 3.31-2.12 5.56-2.55 7.01-3.41 13.4-2 20.8 0.334 2.06 0.668 4.12 1 6.19 0.607 3.62 1.26 7.22 2 10.8h2c0.897 1.61 0.897 1.61 1.81 3.25 1.22 2.15 2.44 4.08 3.94 6.06 1.25 1.69 1.25 1.69 1.25 3.69l1.56 0.688c3.33 1.79 6.58 3.81 9.44 6.31v2c2.33 1.21 4.5 2.17 7 3v2c0.681 0.247 1.36 0.495 2.06 0.75 2.33 0.991 4.34 2.03 6.5 3.31 2.66 1.5 4.49 2.47 7.44 2.94v2c2.31 0.66 4.62 1.32 7 2v2c4.45 1.48 4.45 1.48 9 3v2c0.639 0.0825 1.28 0.165 1.94 0.25 4.27 1.05 8.09 2.89 12.1 4.75v2c0.572 0.122 1.14 0.245 1.73 0.371 2.37 0.657 4.34 1.57 6.52 2.69 0.706 0.362 1.41 0.724 2.14 1.1 0.531 0.277 1.06 0.554 1.61 0.84v2h3v2h3v2c2.33 1.21 4.5 2.17 7 3v2h2v2c0.99 0.33 1.98 0.66 3 1v2h2v2h2c1.29 1.46 1.29 1.46 2.62 3.38 0.446 0.626 0.892 1.25 1.35 1.9 1.02 1.73 1.02 1.73 1.02 3.73h2v3h2c0.843 1.58 1.67 3.16 2.5 4.75 0.464 0.882 0.928 1.76 1.41 2.67 1.09 2.58 1.09 2.58 1.09 6.58h2c3.44 12.3 4.99 23.9 0 36h-7c-1.15-2.31-1.23-3.9-1.39-6.47-0.069-0.9-0.138-1.8-0.209-2.73-0.137-1.88-0.265-3.76-0.383-5.64-0.46-5.74-1.58-10.2-4.18-15.4-0.833-1.78-0.833-1.78-0.833-3.78h-2c-0.413-0.908-0.825-1.82-1.25-2.75-1.65-3.06-3.28-4.87-5.75-7.25v-2h-2v-2h-2c-2.63-2.38-2.63-2.38-5-5v-2h-3v-2c-0.583-0.126-1.17-0.252-1.77-0.382-2.21-0.613-3.95-1.41-5.96-2.51-1.05-0.567-1.05-0.567-2.12-1.14-0.734-0.401-1.47-0.802-2.22-1.21-11.5-6.49-11.5-6.49-23.9-10.8v-2c-0.701-0.124-1.4-0.247-2.12-0.375-3.05-0.663-5.93-1.6-8.88-2.62v-2h-5v-2c-0.552-0.122-1.1-0.245-1.67-0.371-2.62-0.709-5.06-1.67-7.58-2.69-0.892-0.362-1.78-0.724-2.7-1.1-1.01-0.416-1.01-0.416-2.05-0.84v-2c-0.701-0.268-1.4-0.536-2.12-0.812-3.04-1.26-5.95-2.69-8.88-4.19v-2h-2v-2c-1.65-0.66-3.3-1.32-5-2v-2c-0.99-0.33-1.98-0.66-3-1v-2h-2v-2h-2c-0.66-1.65-1.32-3.3-2-5h-2c-0.33-1.32-0.66-2.64-1-4h-2v-3h-2v-2h-2c-0.254-0.664-0.508-1.33-0.77-2.01-2.1-5.46-2.1-5.46-4.86-10.6-7.81-13.5-5.01-33.2-1.38-47.4h2v-4h2c0.33-1.65 0.66-3.3 1-5h2v-3h2v-2h2c0.0412-0.557 0.0825-1.11 0.125-1.69 1.36-3.61 3.79-5.04 6.88-7.31h2v-2h3v-2c2.06-0.844 4.12-1.67 6.19-2.5 1.15-0.464 2.3-0.928 3.48-1.41 3.05-1 5.16-1.33 8.33-1.09v-4h-2v-2c-0.724-0.133-1.45-0.266-2.2-0.402-9.77-2.08-18.3-6.8-27-11.6-2.74-1.52-5.5-3.01-8.25-4.5-1.52-0.833-3.04-1.67-4.56-2.5v-2h-4v-2c-1.18-0.464-1.18-0.464-2.38-0.938-2.62-1.06-2.62-1.06-4.62-2.06v-2h-2v-2c-0.722-0.227-1.44-0.454-2.19-0.688-3.39-1.58-5.28-3.58-7.81-6.31-0.763-0.722-1.53-1.44-2.31-2.19-1.69-1.81-1.69-1.81-1.69-3.81h-2c-1.29-1.43-1.29-1.43-2.62-3.31-0.446-0.615-0.892-1.23-1.35-1.86-1.02-1.82-1.02-1.82-1.02-4.82h-2v-2h-2c-0.843-1.58-1.67-3.16-2.5-4.75-0.696-1.32-0.696-1.32-1.41-2.67-1.09-2.58-1.09-2.58-1.09-6.58h-2c-5.86-13.1-8.04-25.8-7-40l1-1c0.304-1.41 0.567-2.83 0.812-4.25 1.22-6.41 3.19-12.5 5.19-18.8h2c0.144-0.598 0.289-1.2 0.438-1.81 0.45-1.75 0.991-3.47 1.56-5.19h2c0.309-0.784 0.619-1.57 0.938-2.38 1.06-2.62 1.06-2.62 2.06-4.62h2v-2h2c0.33-0.99 0.66-1.98 1-3h2v-2h2v-2c10.7-9.19 22.9-14 37-15 0.66-0.33 1.32-0.66 2-1 2.37-0.0712 4.75-0.0841 7.12-0.0625 1.28 0.00902 2.56 0.018 3.88 0.0273 0.987 0.0116 1.97 0.0232 2.99 0.0352v2c0.655-0.058 1.31-0.116 1.98-0.176 9.57-0.473 16.6 2.94 25 7.18v2h3v2c1.98 0.495 1.98 0.495 4 1v2h3v2h2v2h2v2c0.99 0.33 1.98 0.66 3 1v2h2v2h2c1.71 1.63 3.38 3.29 5 5-0.33-2.31-0.66-4.62-1-7h-2c-0.254-0.808-0.508-1.62-0.77-2.45-0.344-1.07-0.688-2.14-1.04-3.24-0.336-1.06-0.673-2.11-1.02-3.2-1.06-3.13-1.06-3.13-2.8-5.76-1.36-2.36-1.36-2.36-1.36-6.36h-2c-0.842-2.08-1.67-4.16-2.5-6.25-0.696-1.74-0.696-1.74-1.41-3.52-1.09-3.23-1.09-3.23-1.09-7.23h-2v-5h-2c-0.254-0.99-0.508-1.98-0.77-3-0.347-1.33-0.694-2.67-1.04-4-0.182-0.695-0.363-1.39-0.55-2.11-0.906-3.4-1.86-6.67-3.26-9.89-4.94-12.3-3.74-26.3-1.38-39h2c-0.108-1.03-0.108-1.03-0.219-2.07 0.291-3.89 1.8-6.35 3.72-9.74 0.334-0.597 0.668-1.19 1.01-1.81 0.82-1.46 1.65-2.92 2.49-4.38h2v-2h2c0.33-0.99 0.66-1.98 1-3h2v-2h2v-2c2.27-1.66 2.27-1.66 5.25-3.5 0.975-0.608 1.95-1.22 2.95-1.84 4.68-2.77 7.26-3.91 12.8-3.66z" fill="#000002"/>
<path transform="translate(805,1168)" d="m0 0c3.83 1.45 5.25 3.33 7 7v4h2c0.838 1.62 1.67 3.25 2.5 4.88 0.464 0.905 0.928 1.81 1.41 2.74 1.09 2.38 1.09 2.38 1.09 4.38h2v2h2c-0.33 0.66-0.66 1.32-1 2-1.32-0.66-2.64-1.32-4-2v-2h-2v-2h-2c-1.62-1.25-1.62-1.25-3-3v-4h-2c-0.673-1.77-1.34-3.54-2-5.31-0.371-0.986-0.742-1.97-1.12-2.99-0.875-2.7-0.875-2.7-0.875-5.7z" fill="#000002"/>
<path transform="translate(825,1197)" d="m0 0h3c-0.33 0.99-0.66 1.98-1 3v-2c-0.66-0.33-1.32-0.66-2-1z" fill="#000002"/>
<path transform="translate(823,1195)" d="m0 0 2 1z" fill="#000002"/>
</svg>
